HIERARCHY
ROOT Hips
{
	OFFSET 0.000000 0.000000 0.000000
	CHANNELS 6 Xposition Yposition Zposition Xrotation Yrotation Zrotation
	JOINT LeftUpLeg_virtual
	{
		OFFSET 0.000000 0.000000 0.000000
		CHANNELS 3 Xrotation Yrotation Zrotation
		JOINT LeftUpLeg
		{
			OFFSET 10.205400 -3.823500 0.155100
			CHANNELS 3 Xrotation Yrotation Zrotation
			JOINT LeftLeg
			{
				OFFSET 0.708757 -12.982077 0.567790
				CHANNELS 3 Xrotation Yrotation Zrotation
				JOINT LeftFoot
				{
					OFFSET -0.708756 -10.717838 -2.184338
					CHANNELS 3 Xrotation Yrotation Zrotation
					JOINT LeftToeBase
					{
						OFFSET 0.108149 -7.191104 7.560241
						CHANNELS 3 Xrotation Yrotation Zrotation
						JOINT LeftToe_End
						{
							OFFSET 0.070230 0.081724 4.490308
							CHANNELS 3 Xrotation Yrotation Zrotation
							End Site
							{
								OFFSET 0 0 0
							}
						}
					}
				}
			}
		}
	}
	JOINT RightUpLeg_virtual
	{
		OFFSET 0.000000 0.000000 0.000000
		CHANNELS 3 Xrotation Yrotation Zrotation
		JOINT RightUpLeg
		{
			OFFSET -10.205400 -3.823500 0.005500
			CHANNELS 3 Xrotation Yrotation Zrotation
			JOINT RightLeg
			{
				OFFSET -0.708756 -12.982134 0.610632
				CHANNELS 3 Xrotation Yrotation Zrotation
				JOINT RightFoot
				{
					OFFSET 0.708754 -10.717769 -1.945823
					CHANNELS 3 Xrotation Yrotation Zrotation
					JOINT RightToeBase
					{
						OFFSET -0.108140 -7.191069 7.372968
						CHANNELS 3 Xrotation Yrotation Zrotation
						JOINT RightToe_End
						{
							OFFSET -0.070227 0.081735 4.479403
							CHANNELS 3 Xrotation Yrotation Zrotation
							End Site
							{
								OFFSET 0 0 0
							}
						}
					}
				}
			}
		}
	}
	JOINT Spine_virtual
	{
		OFFSET 0.000000 0.000000 0.000000
		CHANNELS 3 Xrotation Yrotation Zrotation
		JOINT Spine
		{
			OFFSET 0.000000 6.876099 0.125700
			CHANNELS 3 Xrotation Yrotation Zrotation
			JOINT Spine1
			{
				OFFSET 0.000000 5.730043 0.104720
				CHANNELS 3 Xrotation Yrotation Zrotation
				JOINT Spine1_split
				{
					OFFSET 0.000000 5.730043 0.104720
					CHANNELS 3 Xrotation Yrotation Zrotation
					JOINT Spine2
					{
						OFFSET 0.000000 5.730043 0.104720
						CHANNELS 3 Xrotation Yrotation Zrotation
						JOINT Neck_virtual
						{
							OFFSET 0.000000 0.000000 0.000000
							CHANNELS 3 Xrotation Yrotation Zrotation
							JOINT Neck
							{
								OFFSET 0.000000 10.314075 0.188496
								CHANNELS 3 Xrotation Yrotation Zrotation
								JOINT Head
								{
									OFFSET 0.000000 7.643700 -2.377400
									CHANNELS 3 Xrotation Yrotation Zrotation
									JOINT HeadTop_End
									{
										OFFSET 0.000000 43.788605 -13.619600
										CHANNELS 3 Xrotation Yrotation Zrotation
										End Site
										{
											OFFSET 0 0 0
										}
									}
								}
							}
						}
						JOINT LeftShoulder_virtual
						{
							OFFSET 0.000000 0.000000 0.000000
							CHANNELS 3 Xrotation Yrotation Zrotation
							JOINT LeftShoulder
							{
								OFFSET 2.196100 4.412489 0.087492
								CHANNELS 3 Xrotation Yrotation Zrotation
								JOINT LeftShoulder_split
								{
									OFFSET 2.196100 4.412489 0.087492
									CHANNELS 3 Xrotation Yrotation Zrotation
									JOINT LeftArm
									{
										OFFSET 8.771219 -2.981674 -0.026999
										CHANNELS 3 Xrotation Yrotation Zrotation
										JOINT LeftForeArm
										{
											OFFSET 8.512804 0.000000 -0.000000
											CHANNELS 3 Xrotation Yrotation Zrotation
											JOINT LeftHand
											{
												OFFSET 18.484802 0.000000 -0.000000
												CHANNELS 3 Xrotation Yrotation Zrotation
												End Site
												{
													OFFSET 0 0 0
												}
											}
										}
									}
								}
							}
						}
						JOINT RightShoulder_virtual
						{
							OFFSET 0.000000 0.000000 0.000000
							CHANNELS 3 Xrotation Yrotation Zrotation
							JOINT RightShoulder
							{
								OFFSET -2.196100 4.412496 0.070690
								CHANNELS 3 Xrotation Yrotation Zrotation
								JOINT RightShoulder_split
								{
									OFFSET -2.196100 4.412496 0.070690
									CHANNELS 3 Xrotation Yrotation Zrotation
									JOINT RightArm
									{
										OFFSET -8.771282 -2.981682 -0.094208
										CHANNELS 3 Xrotation Yrotation Zrotation
										JOINT RightForeArm
										{
											OFFSET -8.494598 0.000000 0.000000
											CHANNELS 3 Xrotation Yrotation Zrotation
											JOINT RightHand
											{
												OFFSET -18.483803 0.000000 0.000001
												CHANNELS 3 Xrotation Yrotation Zrotation
												End Site
												{
													OFFSET 0 0 0
												}
											}
										}
									}
								}
							}
						}
					}
				}
			}
		}
	}
}
MOTION
Frames: 6
Frame Time: 0.03333333
-0.503854 30.989016 0.315577 0.000000 0.000000 0.000000 -3.977156 -46.143245 -2.297269 -25.396814 4.305319 13.497902 36.304470 -14.155645 -0.964917 -12.851678 1.343931 -7.618334 0.186223 -3.319556 1.961330 0.000000 0.000000 0.000000 -4.936033 -45.146041 -2.367756 7.575094 -13.085103 -20.215277 24.240753 -8.027340 -0.596321 -30.059540 -7.507518 21.424026 -1.406330 -0.723200 -0.164344 0.000000 0.000000 0.000000 -2.775394 -43.367443 -1.517014 6.135231 5.656694 -1.028633 12.381015 9.420974 -3.108954 1.029112 -1.448207 0.705602 0.000000 0.000000 0.000000 12.354985 9.176283 -3.270126 -3.992415 -1.972561 0.323960 -4.756103 21.948852 -1.187538 0.000000 0.000000 0.000000 12.217018 9.373762 -3.094296 1.902757 -0.060575 -7.152696 -2.762619 -3.303763 -0.703494 -14.821196 3.649925 -61.409555 8.866850 -46.826537 5.382210 0.000000 0.000000 0.000000 12.243769 9.364007 -3.270870 1.418868 9.832322 11.595076 -1.815934 3.356287 -0.487813 3.541390 -21.435082 61.410005 -5.960528 41.824103 7.979214 0.000000 0.000000 0.000000 
-0.504172 30.989311 0.342028 0.000000 0.000000 0.000000 -3.933778 -46.102312 -2.273816 -25.406651 4.248004 13.487963 36.236162 -14.133959 -0.977313 -12.910780 1.350466 -7.563120 0.234806 -3.324513 1.974953 0.000000 0.000000 0.000000 -4.853511 -45.114912 -2.340193 7.585387 -13.015388 -20.242881 24.285410 -7.962735 -0.640946 -30.059526 -7.530249 21.474656 -1.413219 -0.741330 -0.136056 0.000000 0.000000 0.000000 -2.680655 -43.344305 -1.488764 6.119014 5.656473 -1.016219 12.346854 9.391052 -3.122707 1.082624 -1.541622 0.700816 0.000000 0.000000 0.000000 12.345564 9.147049 -3.260953 -3.965353 -1.853185 0.254023 -4.750044 22.087841 -1.131362 0.000000 0.000000 0.000000 12.198037 9.340618 -3.101642 1.915279 -0.077300 -7.204150 -2.704964 -3.250750 -0.587136 -14.865816 3.571626 -61.400730 8.916981 -46.970019 5.420227 0.000000 0.000000 0.000000 12.218263 9.333734 -3.249032 1.438891 9.810237 11.583800 -1.912262 3.421556 -0.430988 3.567672 -21.401573 61.426330 -5.925012 41.718580 7.949872 0.000000 0.000000 0.000000 
-0.499963 30.992882 0.359135 0.000000 0.000000 0.000000 -3.861723 -46.112755 -2.228825 -25.391618 4.177471 13.460588 36.129720 -14.087156 -0.955540 -13.006764 1.381422 -7.551590 0.284308 -3.331066 1.982560 0.000000 0.000000 0.000000 -4.767257 -45.103448 -2.297183 7.515374 -12.980261 -20.282260 24.371712 -7.874820 -0.727820 -30.034374 -7.561360 21.552838 -1.436536 -0.777419 -0.129261 0.000000 0.000000 0.000000 -2.574266 -43.331188 -1.457148 6.128429 5.636119 -1.004636 12.315903 9.337042 -3.126230 1.093806 -1.580180 0.725235 0.000000 0.000000 0.000000 12.319494 9.093229 -3.256587 -3.918400 -1.708510 0.187450 -4.663752 22.437632 -1.122664 0.000000 0.000000 0.000000 12.182729 9.276226 -3.104487 1.929584 -0.107216 -7.237520 -2.665898 -3.190684 -0.493120 -14.927315 3.539934 -61.422566 8.968156 -47.127499 5.462940 0.000000 0.000000 0.000000 12.198619 9.279765 -3.222693 1.450587 9.779409 11.578983 -1.959331 3.444504 -0.382814 3.545672 -21.303421 61.427771 -5.852115 41.524603 7.877328 0.000000 0.000000 0.000000 
-0.496997 30.995256 0.361357 0.000000 0.000000 0.000000 -3.771885 -46.161017 -2.165396 -25.361966 4.104799 13.416208 36.022606 -14.024025 -0.903167 -13.108847 1.430340 -7.590912 0.316014 -3.337879 1.986493 0.000000 0.000000 0.000000 -4.684688 -45.099223 -2.239167 7.353424 -12.987425 -20.329390 24.497619 -7.768110 -0.854232 -29.985978 -7.596804 21.672561 -1.453852 -0.827239 -0.138196 0.000000 0.000000 0.000000 -2.478061 -43.321855 -1.423347 6.159684 5.597126 -0.996764 12.285635 9.257206 -3.119140 1.041208 -1.565446 0.768581 0.000000 0.000000 0.000000 12.284249 9.015159 -3.255522 -3.869736 -1.530714 0.120300 -4.529258 23.032858 -1.184166 0.000000 0.000000 0.000000 12.167270 9.180761 -3.100137 1.944111 -0.150232 -7.257814 -2.657167 -3.110401 -0.432016 -14.974046 3.576648 -61.466662 9.022473 -47.316784 5.514976 0.000000 0.000000 0.000000 12.176066 9.201303 -3.191475 1.456823 9.738809 11.561960 -1.979218 3.429052 -0.360988 3.489264 -21.170590 61.405655 -5.761306 41.276117 7.778930 0.000000 0.000000 0.000000 
-0.492244 30.995474 0.353605 0.000000 0.000000 0.000000 -3.684755 -46.228107 -2.095071 -25.341119 4.050874 13.358143 35.945465 -13.955421 -0.836662 -13.178902 1.486314 -7.670285 0.343158 -3.346521 1.988439 0.000000 0.000000 0.000000 -4.623431 -45.096727 -2.175368 7.141778 -13.046360 -20.354194 24.634493 -7.655850 -1.021189 -29.940694 -7.625380 21.789755 -1.473037 -0.883144 -0.154893 0.000000 0.000000 0.000000 -2.411323 -43.315250 -1.385692 6.205095 5.544887 -0.989637 12.259104 9.151331 -3.107367 0.986387 -1.516357 0.792464 0.000000 0.000000 0.000000 12.244584 8.910343 -3.256349 -3.845509 -1.305348 0.041971 -4.393660 23.897271 -1.336122 0.000000 0.000000 0.000000 12.152353 9.051430 -3.090940 1.957531 -0.200333 -7.272272 -2.646113 -3.032673 -0.421777 -14.995566 3.659506 -61.519145 9.099799 -47.554758 5.585830 0.000000 0.000000 0.000000 12.147293 9.097558 -3.158542 1.458311 9.696470 11.525621 -1.975121 3.389506 -0.361611 3.417106 -21.034889 61.370834 -5.682438 41.034988 7.681017 0.000000 0.000000 0.000000 
-0.484722 30.993830 0.344088 0.000000 0.000000 0.000000 -3.612204 -46.283237 -2.022016 -25.342968 4.032507 13.285999 35.908272 -13.885080 -0.774990 -13.207197 1.532526 -7.767234 0.379078 -3.359189 1.992132 0.000000 0.000000 0.000000 -4.585484 -45.087919 -2.109145 6.930891 -13.156625 -20.331591 24.750080 -7.568073 -1.230755 -29.915781 -7.643119 21.860937 -1.523009 -0.937211 -0.164116 0.000000 0.000000 0.000000 -2.389505 -43.306695 -1.341751 6.251271 5.484778 -0.980526 12.234062 9.018290 -3.098376 0.937595 -1.449460 0.791881 0.000000 0.000000 0.000000 12.202747 8.774759 -3.259964 -3.874273 -1.015011 -0.062057 -4.281600 25.055808 -1.596027 0.000000 0.000000 0.000000 12.138027 8.889561 -3.082125 1.970438 -0.250810 -7.290906 -2.590191 -3.011149 -0.424797 -14.986340 3.753948 -61.568623 9.209252 -47.832757 5.676131 0.000000 0.000000 0.000000 12.109253 8.965116 -3.126051 1.455339 9.664588 11.461012 -1.935848 3.336081 -0.371293 3.335302 -20.918527 61.333077 -5.632576 40.851717 7.604031 0.000000 0.000000 0.000000 
